<mxfile host="app.diagrams.net" modified="2024-05-21T15:15:23.863Z" agent="Mozilla/5.0 (Windows NT 10.0; Win64; x64) AppleWebKit/537.36 (KHTML, like Gecko) Chrome/125.0.0.0 Safari/537.36 Edg/125.0.0.0" version="24.3.1" etag="Sg8vzsrrkQ_-1N9w-VpF" type="github">
  <diagram name="第 1 页" id="KRxi6TWs22wc0EasZetV">
    <mxGraphModel>
      <root>
        <mxCell id="0" />
        <mxCell id="1" parent="0" />
      </root>
    </mxGraphModel>
  </diagram>
</mxfile>
